<svg xmlns="http://www.w3.org/2000/svg" xmlns:xlink="http://www.w3.org/1999/xlink" width="500" zoomAndPan="magnify" viewBox="0 0 375 374.999991" height="500" preserveAspectRatio="xMidYMid meet" version="1.0"><defs><clipPath id="246f0f6d0f"><path d="M 48.9375 48.9375 L 326 48.9375 L 326 326 L 48.9375 326 Z M 48.9375 48.9375 " clip-rule="nonzero"/></clipPath><clipPath id="a2a1853cdf"><path d="M 325.667969 135.5 C 325.667969 132.195312 325.667969 128.886719 325.652344 125.582031 C 325.636719 122.800781 325.605469 120.019531 325.527344 117.234375 C 325.367188 111.171875 325.007812 105.058594 323.929688 99.0625 C 322.839844 92.976562 321.046875 87.308594 318.234375 81.773438 C 315.46875 76.339844 311.855469 71.375 307.542969 67.0625 C 303.230469 62.75 298.253906 59.136719 292.820312 56.371094 C 287.292969 53.554688 281.628906 51.773438 275.546875 50.671875 C 269.550781 49.597656 263.433594 49.234375 257.367188 49.074219 C 254.585938 48.996094 251.804688 48.96875 249.019531 48.953125 C 245.714844 48.9375 242.410156 48.9375 239.105469 48.9375 L 135.5 48.9375 C 132.195312 48.9375 128.886719 48.9375 125.582031 48.953125 C 122.800781 48.96875 120.019531 48.996094 117.234375 49.074219 C 111.171875 49.242188 105.050781 49.597656 99.054688 50.679688 C 92.96875 51.773438 87.308594 53.5625 81.78125 56.378906 C 76.347656 59.144531 71.375 62.757812 67.0625 67.070312 C 62.75 71.382812 59.136719 76.347656 56.371094 81.78125 C 53.554688 87.316406 51.765625 92.984375 50.671875 99.070312 C 49.597656 105.066406 49.234375 111.183594 49.074219 117.242188 C 48.996094 120.027344 48.96875 122.808594 48.953125 125.589844 C 48.9375 128.886719 48.9375 132.195312 48.9375 135.5 L 48.9375 239.097656 C 48.9375 242.402344 48.9375 245.707031 48.953125 249.011719 C 48.96875 251.796875 48.996094 254.578125 49.074219 257.359375 C 49.234375 263.425781 49.597656 269.539062 50.671875 275.53125 C 51.765625 281.621094 53.554688 287.285156 56.371094 292.820312 C 59.136719 298.253906 62.75 303.222656 67.0625 307.535156 C 71.375 311.847656 76.347656 315.460938 81.78125 318.226562 C 87.308594 321.039062 92.976562 322.824219 99.054688 323.921875 C 105.050781 325 111.171875 325.359375 117.234375 325.519531 C 120.019531 325.597656 122.800781 325.628906 125.582031 325.644531 C 128.886719 325.667969 132.195312 325.660156 135.5 325.660156 L 239.097656 325.660156 C 242.402344 325.660156 245.707031 325.660156 249.011719 325.644531 C 251.796875 325.628906 254.578125 325.597656 257.359375 325.519531 C 263.425781 325.359375 269.542969 325 275.539062 323.921875 C 281.628906 322.832031 287.285156 321.039062 292.8125 318.226562 C 298.246094 315.460938 303.222656 311.847656 307.535156 307.535156 C 311.847656 303.222656 315.460938 298.253906 318.226562 292.820312 C 321.039062 287.285156 322.832031 281.621094 323.921875 275.53125 C 325 269.539062 325.359375 263.417969 325.519531 257.359375 C 325.597656 254.578125 325.628906 251.796875 325.644531 249.011719 C 325.667969 245.707031 325.660156 242.402344 325.660156 239.097656 L 325.660156 135.5 Z M 325.667969 135.5 " clip-rule="evenodd"/></clipPath><linearGradient x1="180" gradientTransform="matrix(0.768698, 0, 0, 0.768698, 48.936175, 48.936219)" y1="359.999941" x2="180" gradientUnits="userSpaceOnUse" y2="-0.0000141005" id="0982d969c6"><stop stop-opacity="1" stop-color="rgb(97.999573%, 13.699341%, 23.098755%)" offset="0"/><stop stop-opacity="1" stop-color="rgb(98.001099%, 13.833618%, 23.233032%)" offset="0.015625"/><stop stop-opacity="1" stop-color="rgb(98.007202%, 14.147949%, 23.548889%)" offset="0.03125"/><stop stop-opacity="1" stop-color="rgb(98.013306%, 14.508057%, 23.907471%)" offset="0.046875"/><stop stop-opacity="1" stop-color="rgb(98.019409%, 14.866638%, 24.266052%)" offset="0.0625"/><stop stop-opacity="1" stop-color="rgb(98.027039%, 15.22522%, 24.62616%)" offset="0.078125"/><stop stop-opacity="1" stop-color="rgb(98.033142%, 15.585327%, 24.984741%)" offset="0.09375"/><stop stop-opacity="1" stop-color="rgb(98.039246%, 15.943909%, 25.343323%)" offset="0.109375"/><stop stop-opacity="1" stop-color="rgb(98.045349%, 16.30249%, 25.70343%)" offset="0.125"/><stop stop-opacity="1" stop-color="rgb(98.051453%, 16.662598%, 26.062012%)" offset="0.140625"/><stop stop-opacity="1" stop-color="rgb(98.059082%, 17.021179%, 26.422119%)" offset="0.15625"/><stop stop-opacity="1" stop-color="rgb(98.065186%, 17.381287%, 26.780701%)" offset="0.171875"/><stop stop-opacity="1" stop-color="rgb(98.071289%, 17.739868%, 27.139282%)" offset="0.1875"/><stop stop-opacity="1" stop-color="rgb(98.077393%, 18.09845%, 27.49939%)" offset="0.203125"/><stop stop-opacity="1" stop-color="rgb(98.083496%, 18.458557%, 27.857971%)" offset="0.21875"/><stop stop-opacity="1" stop-color="rgb(98.091125%, 18.817139%, 28.216553%)" offset="0.234375"/><stop stop-opacity="1" stop-color="rgb(98.097229%, 19.17572%, 28.57666%)" offset="0.25"/><stop stop-opacity="1" stop-color="rgb(98.103333%, 19.535828%, 28.935242%)" offset="0.265625"/><stop stop-opacity="1" stop-color="rgb(98.109436%, 19.894409%, 29.293823%)" offset="0.28125"/><stop stop-opacity="1" stop-color="rgb(98.11554%, 20.252991%, 29.653931%)" offset="0.296875"/><stop stop-opacity="1" stop-color="rgb(98.123169%, 20.613098%, 30.012512%)" offset="0.3125"/><stop stop-opacity="1" stop-color="rgb(98.129272%, 20.97168%, 30.37262%)" offset="0.328125"/><stop stop-opacity="1" stop-color="rgb(98.135376%, 21.331787%, 30.731201%)" offset="0.34375"/><stop stop-opacity="1" stop-color="rgb(98.141479%, 21.690369%, 31.089783%)" offset="0.359375"/><stop stop-opacity="1" stop-color="rgb(98.147583%, 22.04895%, 31.44989%)" offset="0.375"/><stop stop-opacity="1" stop-color="rgb(98.155212%, 22.409058%, 31.808472%)" offset="0.390625"/><stop stop-opacity="1" stop-color="rgb(98.161316%, 22.767639%, 32.167053%)" offset="0.40625"/><stop stop-opacity="1" stop-color="rgb(98.167419%, 23.126221%, 32.527161%)" offset="0.421875"/><stop stop-opacity="1" stop-color="rgb(98.173523%, 23.486328%, 32.885742%)" offset="0.4375"/><stop stop-opacity="1" stop-color="rgb(98.179626%, 23.84491%, 33.244324%)" offset="0.453125"/><stop stop-opacity="1" stop-color="rgb(98.187256%, 24.203491%, 33.604431%)" offset="0.46875"/><stop stop-opacity="1" stop-color="rgb(98.193359%, 24.563599%, 33.963013%)" offset="0.484375"/><stop stop-opacity="1" stop-color="rgb(98.199463%, 24.92218%, 34.321594%)" offset="0.5"/><stop stop-opacity="1" stop-color="rgb(98.205566%, 25.280762%, 34.681702%)" offset="0.515625"/><stop stop-opacity="1" stop-color="rgb(98.21167%, 25.640869%, 35.040283%)" offset="0.53125"/><stop stop-opacity="1" stop-color="rgb(98.219299%, 25.999451%, 35.400391%)" offset="0.546875"/><stop stop-opacity="1" stop-color="rgb(98.225403%, 26.359558%, 35.758972%)" offset="0.5625"/><stop stop-opacity="1" stop-color="rgb(98.231506%, 26.71814%, 36.117554%)" offset="0.578125"/><stop stop-opacity="1" stop-color="rgb(98.23761%, 27.076721%, 36.477661%)" offset="0.59375"/><stop stop-opacity="1" stop-color="rgb(98.243713%, 27.436829%, 36.836243%)" offset="0.609375"/><stop stop-opacity="1" stop-color="rgb(98.251343%, 27.79541%, 37.194824%)" offset="0.625"/><stop stop-opacity="1" stop-color="rgb(98.257446%, 28.153992%, 37.554932%)" offset="0.640625"/><stop stop-opacity="1" stop-color="rgb(98.26355%, 28.514099%, 37.913513%)" offset="0.65625"/><stop stop-opacity="1" stop-color="rgb(98.269653%, 28.872681%, 38.272095%)" offset="0.671875"/><stop stop-opacity="1" stop-color="rgb(98.275757%, 29.231262%, 38.632202%)" offset="0.6875"/><stop stop-opacity="1" stop-color="rgb(98.283386%, 29.59137%, 38.990784%)" offset="0.703125"/><stop stop-opacity="1" stop-color="rgb(98.28949%, 29.949951%, 39.350891%)" offset="0.71875"/><stop stop-opacity="1" stop-color="rgb(98.295593%, 30.310059%, 39.709473%)" offset="0.734375"/><stop stop-opacity="1" stop-color="rgb(98.301697%, 30.66864%, 40.068054%)" offset="0.75"/><stop stop-opacity="1" stop-color="rgb(98.3078%, 31.027222%, 40.428162%)" offset="0.765625"/><stop stop-opacity="1" stop-color="rgb(98.31543%, 31.387329%, 40.786743%)" offset="0.78125"/><stop stop-opacity="1" stop-color="rgb(98.321533%, 31.745911%, 41.145325%)" offset="0.796875"/><stop stop-opacity="1" stop-color="rgb(98.327637%, 32.104492%, 41.505432%)" offset="0.8125"/><stop stop-opacity="1" stop-color="rgb(98.33374%, 32.4646%, 41.864014%)" offset="0.828125"/><stop stop-opacity="1" stop-color="rgb(98.339844%, 32.823181%, 42.222595%)" offset="0.84375"/><stop stop-opacity="1" stop-color="rgb(98.347473%, 33.181763%, 42.582703%)" offset="0.859375"/><stop stop-opacity="1" stop-color="rgb(98.353577%, 33.54187%, 42.941284%)" offset="0.875"/><stop stop-opacity="1" stop-color="rgb(98.35968%, 33.900452%, 43.301392%)" offset="0.890625"/><stop stop-opacity="1" stop-color="rgb(98.365784%, 34.259033%, 43.659973%)" offset="0.90625"/><stop stop-opacity="1" stop-color="rgb(98.373413%, 34.619141%, 44.018555%)" offset="0.921875"/><stop stop-opacity="1" stop-color="rgb(98.379517%, 34.977722%, 44.378662%)" offset="0.9375"/><stop stop-opacity="1" stop-color="rgb(98.38562%, 35.33783%, 44.737244%)" offset="0.953125"/><stop stop-opacity="1" stop-color="rgb(98.391724%, 35.696411%, 45.095825%)" offset="0.96875"/><stop stop-opacity="1" stop-color="rgb(98.396301%, 35.987854%, 45.387268%)" offset="1"/></linearGradient></defs><g clip-path="url(#246f0f6d0f)"><g clip-path="url(#a2a1853cdf)"><path fill="url(#0982d969c6)" d="M 48.9375 48.9375 L 48.9375 325.667969 L 325.667969 325.667969 L 325.667969 48.9375 Z M 48.9375 48.9375 " fill-rule="nonzero"/></g></g><path fill="#ffffff" d="M 244.570312 91.214844 C 243.902344 91.277344 237.960938 92.328125 237.242188 92.476562 L 154.992188 109.070312 L 154.960938 109.078125 C 152.816406 109.53125 151.132812 110.292969 149.835938 111.386719 C 148.265625 112.699219 147.398438 114.558594 147.066406 116.726562 C 147 117.1875 146.882812 118.125 146.882812 119.511719 C 146.882812 119.511719 146.882812 203.542969 146.882812 222.453125 C 146.882812 224.859375 146.691406 227.195312 145.0625 229.1875 C 143.433594 231.179688 141.417969 231.777344 139.058594 232.253906 C 137.265625 232.617188 135.476562 232.976562 133.683594 233.339844 C 126.890625 234.707031 122.46875 235.636719 118.464844 237.191406 C 114.636719 238.675781 111.769531 240.566406 109.488281 242.964844 C 104.957031 247.707031 103.121094 254.140625 103.753906 260.167969 C 104.289062 265.308594 106.605469 270.230469 110.578125 273.863281 C 113.261719 276.324219 116.613281 278.191406 120.5625 278.984375 C 124.660156 279.808594 129.027344 279.523438 135.40625 278.230469 C 138.804688 277.546875 141.988281 276.476562 145.015625 274.6875 C 148.011719 272.917969 150.582031 270.558594 152.585938 267.683594 C 154.601562 264.800781 155.902344 261.597656 156.617188 258.191406 C 157.351562 254.679688 157.53125 251.503906 157.53125 248 L 157.53125 158.714844 C 157.53125 153.933594 158.882812 152.671875 162.742188 151.734375 C 162.742188 151.734375 231.109375 137.945312 234.300781 137.320312 C 238.75 136.46875 240.847656 137.734375 240.847656 142.402344 L 240.847656 203.351562 C 240.847656 205.765625 240.828125 208.210938 239.179688 210.210938 C 237.550781 212.199219 235.539062 212.800781 233.175781 213.277344 C 231.386719 213.636719 229.59375 214 227.804688 214.359375 C 221.007812 215.726562 216.589844 216.660156 212.585938 218.210938 C 208.757812 219.695312 205.890625 221.585938 203.605469 223.984375 C 199.078125 228.726562 197.078125 235.160156 197.710938 241.1875 C 198.25 246.332031 200.722656 251.25 204.699219 254.886719 C 207.378906 257.34375 210.730469 259.160156 214.683594 259.960938 C 218.78125 260.78125 223.144531 260.488281 229.527344 259.207031 C 232.925781 258.523438 236.105469 257.5 239.136719 255.707031 C 242.132812 253.941406 244.699219 251.582031 246.707031 248.707031 C 248.722656 245.824219 250.019531 242.617188 250.734375 239.210938 C 251.472656 235.699219 251.503906 232.523438 251.503906 229.019531 L 251.503906 98.488281 C 251.519531 93.75 249.019531 90.832031 244.570312 91.214844 Z M 244.570312 91.214844 " fill-opacity="1" fill-rule="evenodd"/></svg>