<svg xmlns="http://www.w3.org/2000/svg" xmlns:xlink="http://www.w3.org/1999/xlink" width="500" zoomAndPan="magnify" viewBox="0 0 375 374.999991" height="500" preserveAspectRatio="xMidYMid meet" version="1.0"><defs><clipPath id="f7c52227ec"><path d="M 38.761719 38.761719 L 336.511719 38.761719 L 336.511719 336.511719 L 38.761719 336.511719 Z M 38.761719 38.761719 " clip-rule="nonzero"/></clipPath></defs><g clip-path="url(#f7c52227ec)"><path fill="#8c52ff" d="M 336.496094 187.703125 C 336.496094 269.90625 269.851562 336.53125 187.628906 336.53125 C 105.425781 336.53125 38.78125 269.90625 38.78125 187.703125 C 38.78125 105.484375 105.425781 38.832031 187.628906 38.832031 C 269.851562 38.832031 336.496094 105.484375 336.496094 187.703125 " fill-opacity="1" fill-rule="nonzero"/></g><path fill="#ffffff" d="M 267.289062 131.261719 L 107.992188 131.261719 C 114.375 135.59375 186.246094 182.785156 187.628906 183.535156 C 189.03125 182.785156 260.902344 135.59375 267.289062 131.261719 " fill-opacity="1" fill-rule="nonzero"/><path fill="#ffffff" d="M 187.628906 190.40625 C 185.636719 189.1875 111.507812 140.1875 107.078125 137.527344 L 107.078125 244.101562 L 268.203125 244.101562 L 268.203125 137.527344 C 263.789062 140.1875 189.640625 189.1875 187.628906 190.40625 " fill-opacity="1" fill-rule="nonzero"/></svg>