<svg xmlns="http://www.w3.org/2000/svg" xmlns:xlink="http://www.w3.org/1999/xlink" width="500" zoomAndPan="magnify" viewBox="0 0 375 374.999991" height="500" preserveAspectRatio="xMidYMid meet" version="1.0"><defs><clipPath id="2a26310a27"><path d="M 40.027344 40.027344 L 334.777344 40.027344 L 334.777344 333 L 40.027344 333 Z M 40.027344 40.027344 " clip-rule="nonzero"/></clipPath><clipPath id="e3c9e12924"><path d="M 126 97 L 254 97 L 254 334.777344 L 126 334.777344 Z M 126 97 " clip-rule="nonzero"/></clipPath></defs><g clip-path="url(#2a26310a27)"><path fill="#1877f2" d="M 334.777344 187.402344 C 334.777344 106.007812 268.792969 40.027344 187.402344 40.027344 C 106.007812 40.027344 40.027344 106.007812 40.027344 187.402344 C 40.027344 260.960938 93.917969 321.929688 164.375 332.988281 L 164.375 230.003906 L 126.953125 230.003906 L 126.953125 187.402344 L 164.375 187.402344 L 164.375 154.933594 C 164.375 117.996094 186.375 97.59375 220.039062 97.59375 C 236.164062 97.59375 253.03125 100.472656 253.03125 100.472656 L 253.03125 136.742188 L 234.445312 136.742188 C 216.136719 136.742188 210.429688 148.101562 210.429688 159.757812 L 210.429688 187.402344 L 251.300781 187.402344 L 244.769531 230.003906 L 210.429688 230.003906 L 210.429688 332.988281 C 280.882812 321.929688 334.777344 260.960938 334.777344 187.402344 " fill-opacity="1" fill-rule="nonzero"/></g><g clip-path="url(#e3c9e12924)"><path fill="#ffffff" d="M 244.769531 230.003906 L 251.300781 187.402344 L 210.429688 187.402344 L 210.429688 159.757812 C 210.429688 148.101562 216.136719 136.742188 234.445312 136.742188 L 253.03125 136.742188 L 253.03125 100.472656 C 253.03125 100.472656 236.164062 97.59375 220.039062 97.59375 C 186.375 97.59375 164.375 117.996094 164.375 154.933594 L 164.375 187.402344 L 126.953125 187.402344 L 126.953125 230.003906 L 164.375 230.003906 L 164.375 332.988281 C 171.878906 334.164062 179.566406 334.777344 187.402344 334.777344 C 195.234375 334.777344 202.925781 334.164062 210.429688 332.988281 L 210.429688 230.003906 L 244.769531 230.003906 " fill-opacity="1" fill-rule="nonzero"/></g></svg>