<svg xmlns="http://www.w3.org/2000/svg" xmlns:xlink="http://www.w3.org/1999/xlink" width="500" zoomAndPan="magnify" viewBox="0 0 375 374.999991" height="500" preserveAspectRatio="xMidYMid meet" version="1.0"><defs><clipPath id="65ca5176cc"><path d="M 23.8125 105 L 351.5625 105 L 351.5625 270 L 23.8125 270 Z M 23.8125 105 " clip-rule="nonzero"/></clipPath></defs><g clip-path="url(#65ca5176cc)"><path fill="#ff7700" d="M 105.75 269.621094 L 126.234375 269.621094 L 126.234375 140.628906 C 118.550781 142.800781 111.628906 146.742188 105.75 151.925781 C 105.75 151.925781 105.75 269.621094 105.75 269.621094 Z M 64.78125 182.355469 L 64.78125 269.476562 L 66.101562 269.617188 L 85.265625 269.617188 L 85.265625 182.222656 L 66.101562 182.222656 C 66.101562 182.222656 64.78125 182.355469 64.78125 182.355469 Z M 23.8125 225.90625 C 23.8125 241.769531 32.066406 255.527344 44.296875 263.199219 L 44.296875 188.65625 C 32.066406 196.316406 23.8125 210.070312 23.8125 225.90625 Z M 146.71875 269.621094 L 167.203125 269.621094 L 167.203125 146.3125 C 161.078125 142.492188 154.144531 139.972656 146.71875 139 Z M 309.273438 182.222656 L 297.75 182.222656 C 298.332031 178.660156 298.703125 175.042969 298.703125 171.304688 C 298.703125 135.097656 270.300781 105.753906 235.261719 105.753906 C 216.253906 105.753906 199.3125 114.5 187.6875 128.203125 L 187.6875 269.617188 L 309.273438 269.617188 C 332.613281 269.617188 351.5625 250.054688 351.5625 225.902344 C 351.5625 201.773438 332.613281 182.222656 309.273438 182.222656 Z M 309.273438 182.222656 " fill-opacity="1" fill-rule="nonzero"/></g></svg>