<svg xmlns="http://www.w3.org/2000/svg" xmlns:xlink="http://www.w3.org/1999/xlink" width="500" zoomAndPan="magnify" viewBox="0 0 375 374.999991" height="500" preserveAspectRatio="xMidYMid meet" version="1.0"><defs><clipPath id="8528d21635"><path d="M 40.027344 40.027344 L 334.777344 40.027344 L 334.777344 334.777344 L 40.027344 334.777344 Z M 40.027344 40.027344 " clip-rule="nonzero"/></clipPath></defs><g clip-path="url(#8528d21635)"><path fill="#1ed760" d="M 187.402344 40.027344 C 106.34375 40.027344 40.027344 106.34375 40.027344 187.402344 C 40.027344 268.457031 106.34375 334.777344 187.402344 334.777344 C 268.457031 334.777344 334.777344 268.457031 334.777344 187.402344 C 334.777344 106.34375 268.457031 40.027344 187.402344 40.027344 Z M 247.191406 252.335938 C 244.421875 252.335938 243.035156 250.949219 240.265625 249.5625 C 219.46875 237.082031 193.132812 230.15625 165.414062 230.15625 C 150.160156 230.15625 133.535156 232.925781 119.667969 235.695312 C 116.898438 235.695312 114.125 237.082031 112.742188 237.082031 C 107.199219 237.082031 103.042969 232.925781 103.042969 227.382812 C 103.042969 221.84375 105.816406 217.6875 111.355469 217.6875 C 129.378906 213.53125 147.402344 210.761719 166.8125 210.761719 C 198.691406 210.761719 227.8125 219.074219 252.761719 232.941406 C 255.53125 235.710938 258.304688 237.097656 258.304688 242.636719 C 255.503906 249.5625 251.347656 252.335938 247.191406 252.335938 Z M 262.429688 213.53125 C 259.660156 213.53125 256.890625 212.144531 254.117188 210.761719 C 230.554688 195.507812 197.277344 187.195312 161.242188 187.195312 C 143.21875 187.195312 126.578125 189.964844 114.113281 192.738281 C 111.339844 194.121094 109.957031 194.121094 107.183594 194.121094 C 100.257812 194.121094 96.089844 188.582031 96.089844 183.023438 C 96.089844 176.097656 98.859375 173.328125 105.785156 170.542969 C 122.425781 166.386719 139.0625 162.230469 162.628906 162.230469 C 201.445312 162.230469 237.480469 171.925781 267.984375 189.949219 C 272.140625 192.722656 274.914062 196.878906 274.914062 201.046875 C 273.527344 207.976562 269.371094 213.53125 262.429688 213.53125 Z M 280.453125 169.15625 C 277.683594 169.15625 276.296875 167.769531 272.140625 166.386719 C 244.421875 151.132812 204.21875 141.433594 165.398438 141.433594 C 145.988281 141.433594 125.195312 144.207031 107.171875 148.363281 C 104.398438 148.363281 103.015625 149.746094 98.859375 149.746094 C 90.546875 151.148438 84.992188 144.207031 84.992188 135.894531 C 84.992188 127.582031 89.148438 123.410156 94.6875 122.027344 C 116.882812 116.484375 140.449219 113.714844 165.398438 113.714844 C 208.375 113.714844 252.734375 123.410156 287.394531 141.433594 C 291.550781 144.207031 295.707031 148.363281 295.707031 155.304688 C 294.320312 163.617188 288.765625 169.15625 280.453125 169.15625 Z M 280.453125 169.15625 " fill-opacity="1" fill-rule="nonzero"/></g></svg>