<svg xmlns="http://www.w3.org/2000/svg" xmlns:xlink="http://www.w3.org/1999/xlink" width="500" zoomAndPan="magnify" viewBox="0 0 375 374.999991" height="500" preserveAspectRatio="xMidYMid meet" version="1.0"><defs><clipPath id="74524bb62d"><path d="M 38.761719 82.828125 L 336.511719 82.828125 L 336.511719 292.078125 L 38.761719 292.078125 Z M 38.761719 82.828125 " clip-rule="nonzero"/></clipPath></defs><g clip-path="url(#74524bb62d)"><path fill="#e91d00" d="M 333.539062 127.992188 C 333.539062 127.992188 330.625 107.5 321.703125 98.476562 C 310.394531 86.628906 297.683594 86.570312 291.882812 85.871094 C 250.195312 82.871094 187.695312 82.871094 187.695312 82.871094 L 187.578125 82.871094 C 187.578125 82.871094 125.078125 82.871094 83.394531 85.871094 C 77.59375 86.570312 64.882812 86.628906 53.570312 98.476562 C 44.652344 107.5 41.738281 127.992188 41.738281 127.992188 C 41.738281 127.992188 38.761719 152.039062 38.761719 176.113281 L 38.761719 198.671875 C 38.761719 222.75 41.738281 246.792969 41.738281 246.792969 C 41.738281 246.792969 44.652344 267.289062 53.570312 276.3125 C 64.910156 288.160156 79.777344 287.78125 86.394531 289.03125 C 110.210938 291.304688 187.636719 292.03125 187.636719 292.03125 C 187.636719 292.03125 250.195312 291.945312 291.882812 288.917969 C 297.714844 288.21875 310.394531 288.160156 321.703125 276.3125 C 330.625 267.289062 333.539062 246.792969 333.539062 246.792969 C 333.539062 246.792969 336.511719 222.71875 336.511719 198.671875 L 336.511719 176.113281 C 336.511719 152.039062 333.539062 127.992188 333.539062 127.992188 Z M 156.882812 226.007812 L 156.882812 142.460938 L 237.339844 184.378906 Z M 156.882812 226.007812 " fill-opacity="1" fill-rule="nonzero"/></g><path fill="#ffffff" d="M 156.882812 142.460938 L 156.882812 226.007812 L 237.339844 184.378906 Z M 156.882812 142.460938 " fill-opacity="1" fill-rule="nonzero"/></svg>